HIERARCHY
ROOT hip
{
	OFFSET 0.000000 0.000000 0.000000
	CHANNELS 6 Xposition Yposition Zposition Xrotation Zrotation Yrotation 
	JOINT abdomen
	{
		OFFSET 0.000000 3.422050 0.000000
		CHANNELS 3 Xrotation Zrotation Yrotation 
		JOINT chest
		{
			OFFSET 0.000000 8.486693 -0.6844110
			CHANNELS 3 Xrotation Zrotation Yrotation 
			JOINT neck
			{
				OFFSET 0.000000 10.26616 -0.2737640
				CHANNELS 3 Xrotation Zrotation Yrotation 
				JOINT head
				{
					OFFSET 0.000000 3.148285 0.000000
					CHANNELS 3 Xrotation Zrotation Yrotation 
					End Site
					{
						OFFSET 0.000000 3.148289 0.000000
					}
				}
			}
			JOINT lCollar
			{
				OFFSET 3.422053 6.707223 -0.8212930
				CHANNELS 3 Yrotation Zrotation Xrotation 
				JOINT lShldr
				{
					OFFSET 3.285171 0.000000 0.000000
					CHANNELS 3 Zrotation Yrotation Xrotation 
					JOINT lForeArm
					{
						OFFSET 10.12928 0.000000 0.000000
						CHANNELS 3 Yrotation Zrotation Xrotation 
						JOINT lHand
						{
							OFFSET 8.486692 0.000000 0.000000
							CHANNELS 3 Zrotation Yrotation Xrotation 
							End Site
							{
								OFFSET 4.106464 0.000000 0.000000
							}
						}
					}
				}
			}
			JOINT rCollar
			{
				OFFSET -3.558935 6.707223 -0.8212930
				CHANNELS 3 Yrotation Zrotation Xrotation 
				JOINT rShldr
				{
					OFFSET -3.148289 0.000000 0.000000
					CHANNELS 3 Zrotation Yrotation Xrotation 
					JOINT rForeArm
					{
						OFFSET -10.26616 0.000000 0.000000
						CHANNELS 3 Yrotation Zrotation Xrotation 
						JOINT rHand
						{
							OFFSET -8.349810 0.000000 0.000000
							CHANNELS 3 Zrotation Yrotation Xrotation 
							End Site
							{
								OFFSET -4.106464 0.000000 0.000000
							}
						}
					}
				}
			}
		}
	}
	JOINT lThigh
	{
		OFFSET 5.338403 -1.642589 1.368821
		CHANNELS 3 Xrotation Zrotation Yrotation 
		JOINT lShin
		{
			OFFSET -2.053232 -20.12167 0.000000
			CHANNELS 3 Xrotation Zrotation Yrotation 
			JOINT lFoot
			{
				OFFSET 0.000000 -19.30038 -1.231939
				CHANNELS 3 Xrotation Yrotation Zrotation 
				End Site
				{
					OFFSET 0.000000 -2.463878 4.653993
				}
			}
		}
	}
	JOINT rThigh
	{
		OFFSET -5.338403 -1.642589 1.368821
		CHANNELS 3 Xrotation Zrotation Yrotation 
		JOINT rShin
		{
			OFFSET 2.053232 -20.12167 0.000000
			CHANNELS 3 Xrotation Zrotation Yrotation 
			JOINT rFoot
			{
				OFFSET 0.000000 -19.30038 -1.231939
				CHANNELS 3 Xrotation Yrotation Zrotation 
				End Site
				{
					OFFSET 0.000000 -2.463878 4.653993
				}
			}
		}
	}
}
MOTION
Frames:	19
Frame Time:	0.1000000
0.000000 43.52852 0.000000 0.000000 0.000000 0.000000 0.000000 0.000000 0.000000 0.000000 0.000000 0.000000 0.000000 0.000000 0.000000 0.000000 0.000000 0.000000 0.000000 0.000000 0.000000 0.000000 0.000000 0.000000 0.000000 0.000000 0.000000 0.000000 0.000000 0.000000 0.000000 0.000000 0.000000 0.000000 0.000000 0.000000 0.000000 0.000000 0.000000 0.000000 0.000000 0.000000 0.000000 0.000000 0.000000 0.000000 0.000000 0.000000 0.000000 0.000000 0.000000 0.000000 0.000000 0.000000 0.000000 0.000000 0.000000 0.000000 0.000000 0.000000 
0.000000 45.00000 0.000000 0.000000 0.000000 1.000000 3.000000 0.000000 -1.000000 -4.000000 0.000000 0.000000 0.000000 2.000000 0.000000 0.000000 0.000000 -3.000000 5.000000 3.000000 10.00000 -86.00000 -37.00000 -15.00000 -146.0000 -5.000000 20.00000 -8.000000 20.00000 30.00000 -5.000000 -3.000000 -10.00000 86.00000 37.00000 -17.00000 125.0000 5.000000 20.00000 32.00000 -20.00000 30.00000 -2.325454 1.927222 3.268967 2.152132 -2.760641 1.738133 21.61264 2.188594 -1.555251 -2.390547 -1.828898 0.7343360 2.219507 2.767552 -0.7233760 21.61849 -1.493137 0.2876010 
0.000000 45.00000 0.000000 0.000000 0.000000 1.000000 3.000000 0.000000 -1.000000 -4.000000 0.000000 0.000000 0.000000 2.000000 0.000000 0.000000 0.000000 -3.000000 5.000000 3.000000 10.00000 -86.00000 -37.00000 -15.00000 -146.0000 -5.000000 20.00000 -8.000000 20.00000 30.00000 -5.000000 -3.000000 -10.00000 86.00000 37.00000 -17.00000 125.0000 5.000000 20.00000 32.00000 -20.00000 30.00000 -2.325454 1.927222 3.268967 2.152132 -2.760641 1.738133 21.61264 2.188594 -1.555251 -2.390547 -1.828898 0.7343360 2.219507 2.767552 -0.7233760 21.61849 -1.493137 0.2876010 
0.000000 45.00000 0.000000 0.000000 0.000000 1.000000 3.000000 0.000000 -1.000000 -4.000000 0.000000 0.000000 0.000000 2.000000 0.000000 0.000000 0.000000 -3.000000 5.000000 3.000000 10.00000 -86.00000 -37.00000 -15.00000 -146.0000 -5.000000 20.00000 -8.000000 20.00000 30.00000 -5.000000 -3.000000 -10.00000 86.00000 37.00000 -17.00000 125.0000 5.000000 20.00000 32.00000 -20.00000 30.00000 -2.325454 1.927222 3.268967 2.152132 -2.760641 1.738133 21.61264 2.188594 -1.555251 -2.390547 -1.828898 0.7343360 2.219507 2.767552 -0.7233760 21.61849 -1.493137 0.2876010 
0.000000 45.00000 0.000000 0.000000 0.000000 1.000000 3.000000 0.000000 -1.000000 -4.000000 0.000000 0.000000 0.000000 2.000000 0.000000 0.000000 0.000000 -3.000000 5.000000 3.000000 10.00000 -86.00000 -37.00000 -15.00000 -146.0000 -5.000000 20.00000 -8.000000 20.00000 30.00000 -5.000000 -3.000000 -10.00000 86.00000 37.00000 -17.00000 125.0000 5.000000 20.00000 32.00000 -20.00000 30.00000 -2.325454 1.927222 3.268967 2.152132 -2.760641 1.738133 21.61264 2.188594 -1.555251 -2.390547 -1.828898 0.7343360 2.219507 2.767552 -0.7233760 21.61849 -1.493137 0.2876010 
0.000000 45.00000 0.000000 0.000000 0.000000 1.000000 3.000000 0.000000 -1.000000 -4.000000 0.000000 0.000000 0.000000 2.000000 0.000000 0.000000 0.000000 -3.000000 5.000000 3.000000 10.00000 -86.00000 -37.00000 -15.00000 -146.0000 -5.000000 20.00000 -8.000000 20.00000 30.00000 -5.000000 -3.000000 -10.00000 86.00000 37.00000 -17.00000 125.0000 5.000000 20.00000 32.00000 -20.00000 30.00000 -2.325454 1.927222 3.268967 2.152132 -2.760641 1.738133 21.61264 2.188594 -1.555251 -2.390547 -1.828898 0.7343360 2.219507 2.767552 -0.7233760 21.61849 -1.493137 0.2876010 
0.000000 45.00000 0.000000 0.000000 0.000000 1.000000 3.000000 0.000000 -1.000000 -4.000000 0.000000 0.000000 0.000000 2.000000 0.000000 0.000000 0.000000 -3.000000 5.000000 3.000000 10.00000 -86.00000 -37.00000 -15.00000 -146.0000 -5.000000 20.00000 -8.000000 20.00000 30.00000 -5.000000 -3.000000 -10.00000 86.00000 37.00000 -17.00000 125.0000 5.000000 20.00000 32.00000 -20.00000 30.00000 -2.325454 1.927222 3.268967 2.152132 -2.760641 1.738133 21.61264 2.188594 -1.555251 -2.390547 -1.828898 0.7343360 2.219507 2.767552 -0.7233760 21.61849 -1.493137 0.2876010 
0.000000 45.00000 0.000000 0.000000 0.000000 1.000000 3.000000 0.000000 -1.000000 -4.000000 0.000000 0.000000 0.000000 2.000000 0.000000 0.000000 0.000000 -3.000000 5.000000 3.000000 10.00000 -86.00000 -37.00000 -15.00000 -146.0000 -5.000000 20.00000 -8.000000 20.00000 30.00000 -5.000000 -3.000000 -10.00000 86.00000 37.00000 -17.00000 125.0000 5.000000 20.00000 32.00000 -20.00000 30.00000 -2.325454 1.927222 3.268967 2.152132 -2.760641 1.738133 21.61264 2.188594 -1.555251 -2.390547 -1.828898 0.7343360 2.219507 2.767552 -0.7233760 21.61849 -1.493137 0.2876010 
0.000000 45.00000 0.000000 0.000000 0.000000 1.000000 3.000000 0.000000 -1.000000 -4.000000 0.000000 0.000000 0.000000 2.000000 0.000000 0.000000 0.000000 -3.000000 5.000000 3.000000 10.00000 -86.00000 -37.00000 -15.00000 -146.0000 -5.000000 20.00000 -8.000000 20.00000 30.00000 -5.000000 -3.000000 -10.00000 86.00000 37.00000 -17.00000 125.0000 5.000000 20.00000 32.00000 -20.00000 30.00000 -2.325454 1.927222 3.268967 2.152132 -2.760641 1.738133 21.61264 2.188594 -1.555251 -2.390547 -1.828898 0.7343360 2.219507 2.767552 -0.7233760 21.61849 -1.493137 0.2876010 
0.000000 45.00000 0.000000 0.000000 0.000000 1.000000 3.000000 0.000000 -1.000000 -4.000000 0.000000 0.000000 0.000000 2.000000 0.000000 0.000000 0.000000 -3.000000 5.000000 3.000000 10.00000 -86.00000 -37.00000 -15.00000 -146.0000 -5.000000 20.00000 -8.000000 20.00000 30.00000 -5.000000 -3.000000 -10.00000 86.00000 37.00000 -17.00000 125.0000 5.000000 20.00000 32.00000 -20.00000 30.00000 -2.325454 1.927222 3.268967 2.152132 -2.760641 1.738133 21.61264 2.188594 -1.555251 -2.390547 -1.828898 0.7343360 2.219507 2.767552 -0.7233760 21.61849 -1.493137 0.2876010 
-0.7500000 45.00000 0.000000 0.000000 0.000000 1.000000 3.000000 0.000000 -1.000000 -4.000000 0.000000 0.000000 0.000000 2.000000 0.000000 0.000000 0.000000 -3.000000 5.000000 3.000000 10.00000 -86.00000 -37.00000 -15.00000 -146.0000 -5.000000 20.00000 -8.000000 20.00000 30.00000 -5.000000 -3.000000 -10.00000 86.00000 37.00000 -17.00000 125.0000 5.000000 20.00000 32.00000 -20.00000 30.00000 -2.414074 2.733918 3.337966 2.086596 -2.397841 1.840940 22.13724 2.121541 -1.994795 -2.456563 -2.187453 0.7962850 2.186359 2.879174 -0.6084620 22.20623 -1.465366 -0.0477790 
-1.500000 45.00000 0.000000 0.000000 0.000000 1.000000 3.000000 0.000000 -1.000000 -4.000000 0.000000 0.000000 0.000000 2.000000 0.000000 0.000000 0.000000 -3.000000 5.000000 3.000000 10.00000 -86.00000 -37.00000 -15.00000 -146.0000 -5.000000 20.00000 -8.000000 20.00000 30.00000 -5.000000 -3.000000 -10.00000 86.00000 37.00000 -17.00000 125.0000 5.000000 20.00000 32.00000 -20.00000 30.00000 -2.502694 3.540613 3.406965 2.021059 -2.035041 1.943747 22.66185 2.054488 -2.434340 -2.522580 -2.546008 0.8582340 2.153211 2.990797 -0.4935490 22.79397 -1.437595 -0.3831590 
-2.250000 45.00000 0.000000 0.000000 0.000000 1.000000 3.000000 0.000000 -1.000000 -4.000000 0.000000 0.000000 0.000000 2.000000 0.000000 0.000000 0.000000 -3.000000 5.000000 3.000000 10.00000 -86.00000 -37.00000 -15.00000 -146.0000 -5.000000 20.00000 -8.000000 20.00000 30.00000 -5.000000 -3.000000 -10.00000 86.00000 37.00000 -17.00000 125.0000 5.000000 20.00000 32.00000 -20.00000 30.00000 -2.591314 4.347309 3.475964 1.955523 -1.672242 2.046554 23.18645 1.987435 -2.873884 -2.588596 -2.904563 0.9201830 2.120063 3.102419 -0.3786350 23.38171 -1.409824 -0.7185400 
-3.000000 45.00000 0.000000 0.000000 0.000000 1.000000 3.000000 0.000000 -1.000000 -4.000000 0.000000 0.000000 0.000000 2.000000 0.000000 0.000000 0.000000 -3.000000 5.000000 3.000000 10.00000 -86.00000 -37.00000 -15.00000 -146.0000 -5.000000 20.00000 -8.000000 20.00000 30.00000 -5.000000 -3.000000 -10.00000 86.00000 37.00000 -17.00000 125.0000 5.000000 20.00000 32.00000 -20.00000 30.00000 -2.679935 5.154005 3.544962 1.889986 -1.309442 2.149361 23.71105 1.920382 -3.313428 -2.654613 -3.263118 0.9821320 2.086915 3.214042 -0.2637220 23.96945 -1.382053 -1.053920 
-3.750000 45.00000 0.000000 0.000000 0.000000 1.000000 3.000000 0.000000 -1.000000 -4.000000 0.000000 0.000000 0.000000 2.000000 0.000000 0.000000 0.000000 -3.000000 5.000000 3.000000 10.00000 -86.00000 -37.00000 -15.00000 -146.0000 -5.000000 20.00000 -8.000000 20.00000 30.00000 -5.000000 -3.000000 -10.00000 86.00000 37.00000 -17.00000 125.0000 5.000000 20.00000 32.00000 -20.00000 30.00000 -2.768555 5.960701 3.613961 1.824450 -0.9466420 2.252168 24.23566 1.853329 -3.752973 -2.720629 -3.621674 1.044081 2.053768 3.325664 -0.1488080 24.55719 -1.354283 -1.389300 
-4.500000 45.00000 0.000000 0.000000 0.000000 1.000000 3.000000 0.000000 -1.000000 -4.000000 0.000000 0.000000 0.000000 2.000000 0.000000 0.000000 0.000000 -3.000000 5.000000 3.000000 10.00000 -86.00000 -37.00000 -15.00000 -146.0000 -5.000000 20.00000 -8.000000 20.00000 30.00000 -5.000000 -3.000000 -10.00000 86.00000 37.00000 -17.00000 125.0000 5.000000 20.00000 32.00000 -20.00000 30.00000 -2.857175 6.767397 3.682960 1.758914 -0.5838420 2.354975 24.76026 1.786276 -4.192517 -2.786645 -3.980229 1.106030 2.020620 3.437286 -0.0338940 25.14493 -1.326512 -1.724680 
-5.250000 45.00000 0.000000 0.000000 0.000000 1.000000 3.000000 0.000000 -1.000000 -4.000000 0.000000 0.000000 0.000000 2.000000 0.000000 0.000000 0.000000 -3.000000 5.000000 3.000000 10.00000 -86.00000 -37.00000 -15.00000 -146.0000 -5.000000 20.00000 -8.000000 20.00000 30.00000 -5.000000 -3.000000 -10.00000 86.00000 37.00000 -17.00000 125.0000 5.000000 20.00000 32.00000 -20.00000 30.00000 -2.945795 7.574092 3.751959 1.693377 -0.2210430 2.457782 25.28487 1.719223 -4.632061 -2.852662 -4.338784 1.167979 1.987472 3.548909 0.0810190 25.73266 -1.298741 -2.060060 
-6.000000 45.00000 0.000000 0.000000 0.000000 1.000000 3.000000 0.000000 -1.000000 -4.000000 0.000000 0.000000 0.000000 2.000000 0.000000 0.000000 0.000000 -3.000000 5.000000 3.000000 10.00000 -86.00000 -37.00000 -15.00000 -146.0000 -5.000000 20.00000 -8.000000 20.00000 30.00000 -5.000000 -3.000000 -10.00000 86.00000 37.00000 -17.00000 125.0000 5.000000 20.00000 32.00000 -20.00000 30.00000 -3.034415 8.380788 3.820958 1.627841 0.1417570 2.560589 25.80947 1.652170 -5.071606 -2.918678 -4.697339 1.229928 1.954324 3.660531 0.1959330 26.32040 -1.270970 -2.395441 
-6.750000 45.00000 0.000000 0.000000 0.000000 1.000000 3.000000 0.000000 -1.000000 -4.000000 0.000000 0.000000 0.000000 2.000000 0.000000 0.000000 0.000000 -3.000000 5.000000 3.000000 10.00000 -86.00000 -37.00000 -15.00000 -146.0000 -5.000000 20.00000 -8.000000 20.00000 30.00000 -5.000000 -3.000000 -10.00000 86.00000 37.00000 -17.00000 125.0000 5.000000 20.00000 32.00000 -20.00000 30.00000 -3.123035 9.187484 3.889957 1.562304 0.5045570 2.663396 26.33408 1.585117 -5.511150 -2.984695 -5.055894 1.291877 1.921176 3.772154 0.3108460 26.90814 -1.243199 -2.730821 
